<svg width="32" height="32" viewBox="0 0 32 32" fill="none" xmlns="http://www.w3.org/2000/svg">
<path fill-rule="evenodd" clip-rule="evenodd" d="M31.6217 15.8555H29.4079V8.04438C29.4079 6.15585 28.8833 4.70798 27.7869 3.73749C25.7568 1.90667 22.4151 2.22667 22.3837 2.23192H15.8105V0.0233922H22.2105C22.7876 -0.00808325 26.6381 -0.265132 29.261 2.09028C30.8348 3.49618 31.6217 5.50011 31.6217 8.04962V15.8555Z" fill="#3EB5F1"/>
<path fill-rule="evenodd" clip-rule="evenodd" d="M8.60328 31.7978C7.20262 31.7978 4.40656 31.5408 2.36066 29.6994C0.797377 28.3198 0 26.2949 0 23.7454V15.9342H2.21377V23.7454C2.21377 25.6339 2.73836 27.0817 3.82951 28.0522C5.86492 29.8831 9.20656 29.5631 9.23803 29.5578H15.8111V31.7716H9.4059C9.28 31.7768 8.99672 31.7978 8.60328 31.7978Z" fill="#3EB5F1"/>
<path fill-rule="evenodd" clip-rule="evenodd" d="M20.1333 8.3329L25.4842 22.0247L25.7045 22.9322C25.7073 23.3259 25.5525 23.7044 25.2746 23.9832C24.9967 24.2621 24.6188 24.4182 24.2251 24.4168H20.7786C19.9645 24.4168 19.3045 23.7569 19.3045 22.9427L19.1104 22.1978C19.1104 21.3837 18.4504 20.7237 17.6363 20.7237H14.9084C14.0943 20.7237 13.4343 21.3837 13.4343 22.1978V22.2398L13.277 22.9532C13.277 23.3451 13.1209 23.7208 12.8433 23.9974C12.5658 24.274 12.1895 24.4287 11.7976 24.4273H8.3563C7.96443 24.4287 7.58814 24.274 7.31056 23.9974C7.03298 23.7208 6.87695 23.3451 6.87695 22.9532L7.11826 22.0247L12.4953 8.28568C12.5181 8.19874 12.5497 8.11436 12.5897 8.03388V8.00241C12.8568 7.53265 13.361 7.24828 13.9012 7.26273H18.7222C19.2648 7.26594 19.762 7.56592 20.0179 8.04437C20.0694 8.13485 20.1082 8.23192 20.1333 8.3329ZM13.6756 15.8031C13.6756 17.2517 14.85 18.426 16.2986 18.426C17.7472 18.426 18.9215 17.2517 18.9215 15.8031C18.9215 14.3544 17.7472 13.1801 16.2986 13.1801C14.85 13.1801 13.6756 14.3544 13.6756 15.8031Z" fill="white"/>
</svg>
